<?xml version="1.0" encoding="UTF-8" standalone="no"?>
<!-- Svg Vector Icons : http://www.onlinewebfonts.com/icon -->

<svg
   xmlns:dc="http://purl.org/dc/elements/1.1/"
   xmlns:cc="http://creativecommons.org/ns#"
   xmlns:rdf="http://www.w3.org/1999/02/22-rdf-syntax-ns#"
   xmlns:svg="http://www.w3.org/2000/svg"
   xmlns="http://www.w3.org/2000/svg"
   xmlns:sodipodi="http://sodipodi.sourceforge.net/DTD/sodipodi-0.dtd"
   xmlns:inkscape="http://www.inkscape.org/namespaces/inkscape"
   version="1.1"
   x="0px"
   y="0px"
   viewBox="0 0 875 980"
   enable-background="new 0 0 1000 1000"
   xml:space="preserve"
   id="svg44"
   sodipodi:docname="memory.svg"
   width="875"
   height="980"
   inkscape:version="0.92.2 (5c3e80d, 2017-08-06)"><defs
     id="defs48" /><sodipodi:namedview
     pagecolor="#ffffff"
     bordercolor="#666666"
     borderopacity="1"
     objecttolerance="10"
     gridtolerance="10"
     guidetolerance="10"
     inkscape:pageopacity="0"
     inkscape:pageshadow="2"
     inkscape:window-width="2736"
     inkscape:window-height="1730"
     id="namedview46"
     showgrid="false"
     fit-margin-top="0"
     fit-margin-left="0"
     fit-margin-right="0"
     fit-margin-bottom="0"
     inkscape:zoom="0.1668772"
     inkscape:cx="3972.0589"
     inkscape:cy="1976.2323"
     inkscape:window-x="-11"
     inkscape:window-y="-11"
     inkscape:window-maximized="1"
     inkscape:current-layer="g8" /><metadata
     id="metadata2"> Svg Vector Icons : http://www.onlinewebfonts.com/icon <rdf:RDF><cc:Work
     rdf:about=""><dc:format>image/svg+xml</dc:format><dc:type
       rdf:resource="http://purl.org/dc/dcmitype/StillImage" /><dc:title></dc:title></cc:Work></rdf:RDF></metadata><g
     id="g42"
     transform="translate(-62.5,-10)"><g
       id="g10"
       style="fill:#ff2a2a"><g
         id="g8"
         style="fill:#ff2a2a"><path
           d="m 902.5,10 h -805 c -19.3,0 -35,15.7 -35,35 v 910 c 0,19.3 15.7,35 35,35 h 805 c 19.3,0 35,-15.7 35,-35 V 45 c 0,-19.3 -15.7,-35 -35,-35 z m -35,682.5 c 0,19.3 -15.7,35 -35,35 h -665 c -19.3,0 -35,-15.7 -35,-35 v -595 c 0,-19.3 15.7,-35 35,-35 h 665 c 19.3,0 35,15.7 35,35 z"
           id="path4"
           style="fill:#b3b3b3"
           inkscape:connector-curvature="0" /></g></g><g
       id="g12" /><g
       id="g14" /><g
       id="g16" /><g
       id="g18" /><g
       id="g20" /><g
       id="g22" /><g
       id="g24" /><g
       id="g26" /><g
       id="g28" /><g
       id="g30" /><g
       id="g32" /><g
       id="g34" /><g
       id="g36" /><g
       id="g38" /><g
       id="g40" /></g></svg>