<?xml version="1.0" encoding="UTF-8" standalone="no"?>
<!-- Created with Inkscape (http://www.inkscape.org/) -->

<svg
   width="952.03802"
   height="242.10982"
   version="1.1"
   viewBox="0 0 251.89445 64.059415"
   id="svg85"
   xml:space="preserve"
   xmlns="http://www.w3.org/2000/svg"
   xmlns:svg="http://www.w3.org/2000/svg"
   xmlns:rdf="http://www.w3.org/1999/02/22-rdf-syntax-ns#"
   xmlns:cc="http://creativecommons.org/ns#"
   xmlns:dc="http://purl.org/dc/elements/1.1/"><defs
     id="defs27"><clipPath
       id="clipPath982"><rect
         x="182.55"
         y="-21.051001"
         width="24.856001"
         height="33.943001"
         style="paint-order:stroke fill markers"
         id="rect2" /></clipPath><clipPath
       id="clipPath1003"><rect
         x="145.13"
         y="-37.620998"
         width="137.64"
         height="76.706001"
         style="paint-order:stroke fill markers"
         id="rect5" /></clipPath><clipPath
       id="clipPath930"><g
         transform="translate(13.229,92.604)"
         id="g12"><rect
           x="89.958"
           y="-129.03"
           width="15.374"
           height="45.074001"
           style="fill-opacity:0.28682;paint-order:stroke fill markers"
           id="rect8" /><rect
           transform="rotate(-90)"
           x="110.46"
           y="84.667"
           width="15.875"
           height="22.268999"
           style="fill-opacity:0.28682;paint-order:stroke fill markers"
           id="rect10" /></g></clipPath><clipPath
       id="clipPath948"><path
         d="m -54.696,36.918 c -0.55307,-0.94282 0.07771,0.23576 -0.15678,-0.46772 -0.07185,-0.21556 -0.15317,-0.14495 -0.20045,-0.33409 -0.0108,-0.0432 0,-0.0891 0,-0.13363 V 35.84892 35.3812 34.71303 34.57939 c 0,-0.0445 -0.01408,-0.0914 0,-0.13363 0.0099,-0.0299 0.05273,-0.0387 0.06682,-0.0668 0.01241,-0.02479 0,-0.41072 0,-0.46772 0,-0.0223 -0.01574,-0.0511 0,-0.0668 0.01574,-0.01569 0.05107,0.01569 0.06682,0 0.01574,-0.01569 0,-0.0445 0,-0.0668 v -0.0668 -0.60136 c 0,-0.0349 0.0088,-0.2497 0,-0.26727 -0.01408,-0.0282 -0.05273,-0.0386 -0.06682,-0.0668 -0.08228,-0.16456 0.19395,0.0603 -0.06682,-0.20045 -0.01574,-0.01569 -0.05107,0.01569 -0.06682,0 -0.01574,-0.01569 0.0099,-0.0469 0,-0.0668 -0.01408,-0.0282 -0.04454,-0.0446 -0.06682,-0.0668 -0.02228,-0.0223 -0.04061,-0.0494 -0.06682,-0.0668 -0.04144,-0.0276 -0.09842,-0.0316 -0.13364,-0.0668 -0.01574,-0.01569 0.01236,-0.0483 0,-0.0668 -0.03494,-0.0524 -0.08909,-0.0891 -0.13363,-0.13363 -0.02228,-0.0223 -0.05273,-0.0386 -0.06682,-0.0668 -0.08416,-0.16831 0.25378,0.0578 -0.13364,-0.20045 -0.01852,-0.01241 -0.04689,0.01 -0.06682,0 -0.02817,-0.0141 -0.04162,-0.0479 -0.06682,-0.0668 -0.06424,-0.0482 -0.13159,-0.0923 -0.20045,-0.13363 -0.08541,-0.0512 -0.18758,-0.0739 -0.26727,-0.13364 -0.0504,-0.0378 -0.08324,-0.0958 -0.13364,-0.13363 -0.03984,-0.0299 -0.08909,-0.0446 -0.13363,-0.0668 -0.04454,-0.0223 -0.08909,-0.0445 -0.13364,-0.0668 -0.04454,-0.0223 -0.08909,-0.0445 -0.13364,-0.0668 -0.04454,-0.0223 -0.08532,-0.0547 -0.13363,-0.0668 -0.04322,-0.01079 -0.09138,0.0141 -0.13364,0 -0.02988,-0.01 -0.04454,-0.0445 -0.06682,-0.0668 -0.04455,-0.0223 -0.08532,-0.0547 -0.13363,-0.0668 -0.04322,-0.01079 -0.09042,0.0108 -0.13364,0 -0.09663,-0.02421 -0.17278,-0.10214 -0.26727,-0.13364 -0.02114,-0.007 -0.0469,0.01 -0.06682,0 -0.05635,-0.0282 -0.07387,-0.11371 -0.13364,-0.13363 -0.04226,-0.0141 -0.09137,0.0141 -0.13363,0 -0.05976,-0.0199 -0.07387,-0.11372 -0.13364,-0.13364 -0.06339,-0.02109 -0.13364,0 -0.20045,0 h -0.4009 c -0.06023,0 -0.29203,-0.014 -0.33409,0 -0.07641,0.02551 -0.28725,0.1302 -0.33409,0.20045 -0.02763,0.0414 -0.0316,0.0984 -0.06682,0.13364 -0.01574,0.01569 -0.04455,0 -0.06682,0 -0.04455,0.0445 -0.10546,0.0773 -0.13364,0.13363 -0.01992,0.0398 0.01992,0.0938 0,0.13364 -0.0099,0.0199 -0.0469,-0.01 -0.06682,0 -0.02021,0.01011 -0.25716,0.24705 -0.26727,0.26727 -0.0099,0.0199 0,0.0445 0,0.0668 -0.02228,0.0446 -0.03919,0.0922 -0.06682,0.13364 -0.10754,0.16131 -0.02228,-0.0223 -0.20045,0.0668 -0.01992,0.01 0.01,0.0469 0,0.0668 -0.13904,0.27808 0.0046,-0.0714 -0.13363,0.0668 -0.0315,0.0315 0.0315,0.10214 0,0.13364 -0.01574,0.01569 -0.05107,-0.0158 -0.06682,0 -0.01574,0.01569 0.0099,0.0469 0,0.0668 -0.07387,0.14774 -0.04147,0.0208 -0.13364,0.0668 -0.02817,0.0141 -0.03864,0.0527 -0.06682,0.0668 -0.03984,0.0199 -0.09379,-0.0199 -0.13364,0 -0.02817,0.0141 -0.03864,0.0527 -0.06681,0.0668 -0.01992,0.01 -0.0469,-0.01 -0.06682,0 -0.02817,0.0141 -0.03865,0.0527 -0.06682,0.0668 -0.01992,0.01 -0.04454,0 -0.06682,0 -0.02228,0.0223 -0.03865,0.0527 -0.06682,0.0668 -0.01992,0.01 -0.05107,-0.01569 -0.06682,0 -0.01574,0.01569 0.01574,0.0511 0,0.0668 -0.01574,0.01569 -0.05107,-0.01569 -0.06682,0 -0.01574,0.01569 0.01574,0.0511 0,0.0668 -0.13825,0.13824 0.0054,-0.21127 -0.13364,0.0668 -0.0099,0.0199 0.01574,0.0511 0,0.0668 -0.13824,0.13825 0.0054,-0.21126 -0.13363,0.0668 -0.01,0.0199 0.0099,0.0469 0,0.0668 -0.01408,0.0282 -0.05273,0.0386 -0.06682,0.0668 -0.0099,0.0199 0.01574,0.0511 0,0.0668 -0.01574,0.01569 -0.05107,-0.01569 -0.06682,0 -0.01574,0.01569 0.007,0.0457 0,0.0668 -0.01574,0.0472 -0.05107,0.0864 -0.06682,0.13363 -0.08048,0.24145 -0.10533,0.49719 -0.20045,0.73499 -0.18928,0.37857 0.0249,-0.0996 -0.06682,0.26727 -0.02416,0.0966 -0.11726,0.16902 -0.13364,0.26727 -0.01466,0.0879 0,0.17818 0,0.26727 0,0.0446 0.0108,0.0904 0,0.13364 -0.02416,0.0966 -0.10214,0.17277 -0.13363,0.26727 -0.007,0.02109 0.0099,0.0469 0,0.0668 -0.1529,0.3058 0.02769,-0.28353 -0.13364,0.20046 -0.007,0.02109 0.01,0.0469 0,0.0668 -0.13904,0.27808 0.0046,-0.0714 -0.13364,0.0668 -0.01574,0.01569 0.007,0.0457 0,0.0668 -0.16133,0.48398 0.01926,-0.10535 -0.13363,0.20045 -0.0315,0.063 -0.03532,0.13746 -0.06682,0.20045 -0.01407,0.0282 -0.05061,0.0398 -0.06682,0.0668 -0.1436,0.23933 -0.13364,0.17837 -0.13364,0.33409 0,0.37369 0.0315,-0.0453 -0.06681,0.20045 -0.03411,0.0853 -0.04455,0.17818 -0.06682,0.26727 -0.02228,0.0891 -0.04881,0.17722 -0.06682,0.26727 -0.0044,0.0218 0.007,0.0457 0,0.0668 -0.01574,0.0472 -0.05863,0.0845 -0.06682,0.13364 -0.01463,0.0879 0.02162,0.18084 0,0.26727 -0.0054,0.02159 -0.04454,0 -0.06682,0 -0.02228,0 -0.05107,0.01569 -0.06681,0 -0.13825,-0.13825 0.21126,0.005 -0.06682,-0.13364 -0.01992,-0.01 -0.04454,0 -0.06682,0 -0.02228,0 -0.05107,-0.01569 -0.06682,0 -0.01574,0.01569 0,0.0446 0,0.0668 0,0.0668 -0.01098,0.13454 0,0.20045 0.01072,0.0642 0.09392,0.38829 0.13364,0.46773 0.03591,0.0718 0.09772,0.12862 0.13363,0.20045 0.0099,0.0199 0,0.0445 0,0.0668 0,0.0446 -0.01408,0.0914 0,0.13364 0.0099,0.0299 0.05273,0.0386 0.06682,0.0668 0.20178,0.40356 -0.0096,0.0283 0.06682,0.33408 0.01206,0.0483 0.05474,0.0853 0.06682,0.13364 0.06682,0.26727 -0.03341,0.0334 0,0.20045 0.01802,0.09 0.05172,0.17669 0.06682,0.26727 0.0073,0.0439 -0.01408,0.0914 0,0.13364 0.0315,0.0945 0.10214,0.17277 0.13363,0.26726 0.01408,0.0423 0,0.0891 0,0.13364 0.02228,0.0891 0.03778,0.18015 0.06682,0.26727 0.01574,0.0472 0.05863,0.0845 0.06682,0.13363 0.02196,0.13182 0,0.26727 0,0.40091 0,0.0445 -0.01079,0.0904 0,0.13363 0.02416,0.0966 0.10948,0.17064 0.13364,0.26727 0.01079,0.0432 -0.0108,0.0904 0,0.13364 0.02416,0.0966 0.10214,0.17277 0.13363,0.26727 0.02904,0.0871 0.03778,0.18015 0.06682,0.26726 0.01574,0.0473 0.05474,0.0853 0.06682,0.13364 0.0108,0.0432 -0.0073,0.0897 0,0.13364 0.01511,0.0906 0.05383,0.17636 0.06682,0.26727 0.0094,0.0661 -0.01098,0.13454 0,0.20045 0.01159,0.0695 0.05524,0.13098 0.06681,0.20045 0.02529,0.15169 -0.02529,0.31603 0,0.46772 0.0082,0.0491 0.04454,0.0891 0.06682,0.13364 0.02228,0.11136 0.05076,0.22166 0.06682,0.33408 0.0063,0.0441 0,0.0891 0,0.13364 v 0.26727 0.80181 2.4054 0.86863 c 0,0.05469 -0.0098,0.38135 0,0.4009 0.0099,0.01992 0.05107,-0.01574 0.06682,0 2.65e-4,2.62e-4 -5.29e-4,0.19796 0,0.20045 0.03019,0.18117 0.11536,0.35179 0.13363,0.53454 0.01619,0.16191 0,0.60771 0,0.80181 0,0.06682 -0.0131,0.13493 0,0.20046 0.0098,0.04883 0.06064,0.08422 0.06682,0.13363 0.01659,0.1326 0,0.26727 0,0.4009 0,0.04454 -0.0108,0.09042 0,0.13363 0.01209,0.04832 0.05705,0.0848 0.06682,0.13363 0.0131,0.06552 0,0.13364 0,0.20046 v 0.60136 0.46772 0.20045 c 0,0.04454 -0.0108,0.09042 0,0.13364 0.01206,0.04832 0.05863,0.08451 0.06682,0.13364 0.01466,0.08788 0,0.17818 0,0.26727 v 0.26727 1.1359 1.0691 0.46772 c 0,0.04454 -0.01079,0.09042 0,0.13363 0.01209,0.04831 0.05474,0.08532 0.06682,0.13364 0.02619,0.10481 -0.02619,0.22927 0,0.33408 0.02416,0.09663 0.10948,0.17064 0.13363,0.26727 0.01474,0.05895 -0.01908,0.21003 0,0.26727 0.0315,0.0945 0.10948,0.17064 0.13364,0.26727 0.0108,0.04321 0,0.08909 0,0.13363 0.02228,0.04455 0.05107,0.08639 0.06682,0.13363 0.007,0.02114 -0.0099,0.0469 0,0.06682 0.15192,0.30384 2.64e-4,-0.46547 0.13363,0.33409 0.0073,0.04394 -0.0073,0.0897 0,0.13363 0.01511,0.09058 0.05172,0.17669 0.06682,0.26727 0.01466,0.08788 -0.02447,0.18161 0,0.26727 0.03295,0.11533 0.10068,0.21876 0.13364,0.33409 0.01222,0.04283 -0.01408,0.09138 0,0.13364 0.0315,0.09449 0.10214,0.17278 0.13363,0.26727 0.01408,0.04226 -0.0108,0.09042 0,0.13364 0.01209,0.04832 0.04832,0.08739 0.06682,0.13363 0.06261,0.15652 0.10521,0.32486 0.20045,0.46772 0.08151,0.12226 0.08519,0.0067 0.13363,0.20045 0.0108,0.04321 -0.01079,0.09042 0,0.13364 0.04845,0.19379 0.05213,0.07819 0.13364,0.20045 0.07418,0.11127 0.12304,0.29769 0.20045,0.4009 0.0378,0.0504 0.08909,0.08909 0.13364,0.13364 0.04454,0.04454 0.08909,0.08909 0.13364,0.13363 0.02228,0.02228 0.05273,0.03865 0.06682,0.06682 0.0099,0.01992 -0.01574,0.05107 0,0.06682 0.05678,0.05679 0.13621,0.08545 0.20045,0.13364 0.06682,0.05011 0.13364,0.16704 0.20045,0.20045 0.03984,0.01992 0.09228,-0.01654 0.13364,0 0.59348,0.39565 -0.16061,-0.05354 0.4009,0.13364 0.07618,0.0254 0.12324,0.11157 0.20045,0.13363 0.08566,0.02447 0.17873,-0.0098 0.26727,0 0.24189,0.02688 0.32636,0.06424 0.53454,0.13364 0.24386,0.08129 0.2549,0.08061 0.53454,0.20045 0.1388,0.05948 0.16818,0.10598 0.33409,0.13363 0.06591,0.01098 0.13493,-0.0131 0.20045,0 0.04884,0.0098 0.08639,0.05107 0.13364,0.06682 0.08712,0.02904 0.17897,0.04159 0.26727,0.06682 0.26496,0.0757 0.2011,0.09659 0.53454,0.13363 0.08855,0.0098 0.17939,-0.01466 0.26727,0 0.04913,0.0082 0.08433,0.05978 0.13363,0.06682 0.15904,0.02273 0.36523,0 0.53454,0 0.06949,0 0.34834,0.01315 0.4009,0 0.09663,-0.02416 0.17278,-0.10214 0.26727,-0.13363 0.02114,-0.007 0.0469,0.0099 0.06682,0 0.05634,-0.02817 0.07729,-0.10546 0.13363,-0.13364 0.01992,-0.01 0.05107,0.01574 0.06682,0 0.01574,-0.01574 -0.0099,-0.0469 0,-0.06682 0.02817,-0.05635 0.10546,-0.07729 0.13364,-0.13363 0.01326,-0.02649 -0.01365,-0.18679 0,-0.20045 0.01574,-0.01574 0.05107,0.01574 0.06682,0 0.0315,-0.0315 -0.01992,-0.09379 0,-0.13364 0.02817,-0.05634 0.10546,-0.07729 0.13363,-0.13363 0.01992,-0.03984 -0.01992,-0.09379 0,-0.13364 0.13904,-0.27808 -0.0046,0.07143 0.13364,-0.06682 0.0315,-0.0315 -0.0315,-0.10214 0,-0.13363 0.01574,-0.01574 0.05107,0.01574 0.06682,0 0.0315,-0.0315 -0.0315,-0.10214 0,-0.13364 0.01574,-0.01574 0.0469,0.0099 0.06682,0 0.01146,-0.0057 0.19768,-0.19215 0.20045,-0.20045 0.01408,-0.04226 -0.01408,-0.09138 0,-0.13364 0.0099,-0.02988 0.04935,-0.04061 0.06682,-0.06682 0.02763,-0.04144 0.04454,-0.08909 0.06682,-0.13363 0.04454,-0.04454 0.09584,-0.08324 0.13363,-0.13364 0.02988,-0.03984 0.04454,-0.08909 0.06682,-0.13364 0.04454,-0.08909 0.08909,-0.17818 0.13364,-0.26727 0.02228,-0.04454 0.03694,-0.09379 0.06682,-0.13364 0.0378,-0.05039 0.10122,-0.07962 0.13363,-0.13363 0.03624,-0.06039 0.04066,-0.13506 0.06682,-0.20045 0.01849,-0.04624 0.05107,-0.08639 0.06682,-0.13363 0.02904,-0.08712 0.04159,-0.17897 0.06682,-0.26727 0.01934,-0.06772 0.053,-0.13139 0.06682,-0.20045 0.0087,-0.04368 -0.0087,-0.08996 0,-0.13364 0.01381,-0.06906 0.04747,-0.13273 0.06682,-0.20045 0.02522,-0.0883 0.04881,-0.17722 0.06682,-0.26727 0.0044,-0.02183 -0.0083,-0.04614 0,-0.06682 0.08693,-0.21732 0.15744,-0.25264 0.20045,-0.46772 0.0087,-0.04368 -0.0108,-0.09042 0,-0.13363 0.01209,-0.04832 0.04454,-0.08909 0.06682,-0.13364 0.02228,-0.04454 0.05474,-0.08532 0.06682,-0.13364 0.0108,-0.04321 -0.0108,-0.09042 0,-0.13363 0.02416,-0.09663 0.1141,-0.1696 0.13364,-0.26727 0.0131,-0.06552 -0.0131,-0.13493 0,-0.20045 0.0098,-0.04883 0.05474,-0.08532 0.06682,-0.13364 0.01079,-0.04321 -0.0073,-0.08969 0,-0.13363 0.01511,-0.09058 0.05383,-0.17636 0.06682,-0.26727 0.0094,-0.06615 -0.01098,-0.13455 0,-0.20045 0.02315,-0.13895 0.11372,-0.26146 0.13364,-0.4009 0.0126,-0.08819 -0.01259,-0.17908 0,-0.26727 0.01,-0.06972 0.04747,-0.13273 0.06682,-0.20045 0.02521,-0.0883 0.05172,-0.17669 0.06682,-0.26727 0.04438,-0.26626 -0.10229,-0.0063 0.06681,-0.4009 0.03163,-0.07381 0.10824,-0.12427 0.13364,-0.20045 0.02114,-0.06339 -0.01098,-0.13454 0,-0.20045 0.01159,-0.06947 0.04747,-0.13273 0.06682,-0.20045 0.02522,-0.0883 0.03064,-0.18286 0.06682,-0.26727 0.03163,-0.07381 0.11416,-0.12255 0.13363,-0.20045 0.02701,-0.10804 -0.02701,-0.22605 0,-0.33409 0.01947,-0.07791 0.09772,-0.12862 0.13364,-0.20045 0.13003,-0.26005 0.0052,-0.168 0.13364,-0.46772 0.03163,-0.07381 0.09772,-0.12862 0.13363,-0.20045 0.0315,-0.063 0.04455,-0.13364 0.06682,-0.20045 0.02228,-0.06682 0.04455,-0.13363 0.06682,-0.20045 0.04454,-0.13364 0.08909,-0.26727 0.13363,-0.4009 0.02228,-0.06682 0.05301,-0.13139 0.06682,-0.20045 0.0087,-0.04368 -0.0108,-0.09042 0,-0.13364 0.02416,-0.09663 0.10948,-0.17064 0.13364,-0.26727 0.0108,-0.04322 -0.0108,-0.09042 0,-0.13364 0.01206,-0.04831 0.04454,-0.08909 0.06682,-0.13364 0.02228,-0.04454 0.05474,-0.08532 0.06682,-0.13363 0.02162,-0.08643 -0.02817,-0.18275 0,-0.26727 0.0099,-0.02988 0.05273,-0.03865 0.06681,-0.06682 0.0099,-0.01992 0,-0.04455 0,-0.06682 0,-0.04454 -0.0108,-0.09042 0,-0.13364 0.01209,-0.04832 0.05107,-0.08639 0.06682,-0.13363 0.01439,-0.04321 0,-0.26113 0,-0.33409 0,-0.01622 0.0021,-0.1983 0,-0.20045 -0.01574,-0.01574 -0.05107,0.01574 -0.06682,0 -0.01574,-0.01574 0,-0.04455 0,-0.06682 0,-0.04647 0.01209,-0.30992 0,-0.33409 -0.01408,-0.02817 -0.05686,-0.03694 -0.06681,-0.06682 -0.01082,-0.03246 0,-0.3995 0,-0.46772 v -0.93544 c 0,-0.02878 -0.009,-0.38282 0,-0.4009 0.01408,-0.02817 0.05686,-0.03693 0.06681,-0.06682 0.01408,-0.04226 0,-0.08909 0,-0.13363 v -0.26727 c 0,-0.06682 -0.0131,-0.13493 0,-0.20046 0.0098,-0.04883 0.05863,-0.08451 0.06682,-0.13363 0.01738,-0.10422 0,-0.40096 0,-0.53454 0,-0.04454 -0.01079,-0.09041 0,-0.13364 0.01209,-0.0483 0.05107,-0.0864 0.06682,-0.13363 0.007,-0.02109 -0.0054,-0.0452 0,-0.0668 0.01709,-0.0683 0.053,-0.13139 0.06682,-0.20045 0.0019,-0.009 -0.0028,-0.3313 0,-0.33409 0.01574,-0.01569 0.04454,0 0.06682,0 0.02228,0 0.05107,-0.01569 0.06682,0 0.0021,0.0021 0,0.18425 0,0.20045 v 0.33409 c 0,0.0445 0.0108,0.0904 0,0.13363 -0.01206,0.0483 -0.05474,0.0853 -0.06682,0.13364 -0.0108,0.04321 0.01564,0.09192 0,0.13364 -0.05246,0.1399 -0.12632,0.27118 -0.20045,0.4009 -0.01564,0.02735 -0.05686,0.03694 -0.06682,0.06682 -0.01408,0.04226 0.0108,0.09042 0,0.13363 -0.03416,0.13666 -0.09947,0.26425 -0.13363,0.4009 -0.0108,0.04321 0,0.08909 0,0.13364 v 0.33409 0.4009 c 0,0.08909 -0.0089,0.17862 0,0.26727 0.01349,0.1348 0.0578,0.26573 0.06682,0.4009 0.01333,0.20001 0,0.4009 0,0.60136 v 1.5368 0.4009 c 0,0.13363 -0.01024,0.26766 0,0.4009 0.04697,0.61064 0.09639,0.39268 0.20045,1.0691 0.01355,0.08805 -0.0098,0.17872 0,0.26727 -0.0038,0.20974 0.11096,0.39727 0.13364,0.60136 0.0123,0.11068 -0.01109,0.22328 0,0.33409 0.01831,0.18321 0.09305,0.41873 0.13364,0.60136 0.02463,0.11086 0.03091,0.22634 0.06682,0.33409 0.11543,0.34629 0.18316,0.20881 0.26727,0.60136 0.04226,0.19721 0.02146,0.40484 0.06682,0.60136 0.02238,0.09705 0.09959,0.17366 0.13364,0.26727 0.05541,0.15238 0.08909,0.31181 0.13363,0.46772 0.04454,0.15591 0.09097,0.31129 0.13364,0.46772 0.02416,0.0886 0.05668,0.176 0.06682,0.26727 0.0123,0.11068 -0.01381,0.22359 0,0.33409 0.04231,0.3385 0.09132,0.0624 0.13363,0.4009 0.01381,0.1105 0,0.22273 0,0.33409 v 0.66817 c 0,0.06682 -0.0131,0.13493 0,0.20045 0.0098,0.04883 0.05107,0.08639 0.06682,0.13364 0.13927,0.09228 0.03691,0.28128 0.06682,0.4009 0.01206,0.04832 0.04832,0.0874 0.06682,0.13364 0.02617,0.0654 0.053,0.13139 0.06682,0.20045 0.0087,0.04368 -0.01992,0.0938 0,0.13364 0.02817,0.05635 0.09584,0.08324 0.13363,0.13364 0.02988,0.03984 0.04455,0.08909 0.06682,0.13363 0.02228,0.04454 0.05107,0.08639 0.06682,0.13364 0.007,0.02114 -0.01574,0.05107 0,0.06682 0.03522,0.03522 0.09842,0.0316 0.13364,0.06682 0.16228,0.16228 -0.01987,0.09812 0.13363,0.20045 0.11127,0.07418 0.29769,0.12304 0.4009,0.20045 0.0504,0.0378 0.07729,0.10546 0.13364,0.13364 0.03984,0.01992 0.09042,-0.0108 0.13363,0 0.09663,0.02416 0.17064,0.10948 0.26727,0.13364 0.05256,0.01315 0.33142,0 0.4009,0 h 0.86863 c 0.0427,0 0.38163,-0.0096 0.4009,0 0.01992,0.0099 -0.01992,0.05686 0,0.06682 0.13364,0.06681 0.10023,-0.03341 0.20045,0 0.04725,0.01574 0.08639,0.05107 0.13364,0.06681 0.04596,0.01532 0.16103,-0.01971 0.20045,0 0.02817,0.01408 0.03694,0.05686 0.06682,0.06682 0.04226,0.01408 0.08909,0 0.13364,0 0.02228,0 0.0469,-0.0099 0.06682,0 0.02817,0.01408 0.03865,0.05273 0.06682,0.06682 0.01992,0.01 0.04454,0 0.06682,0 h 0.13364 0.33409 0.46772 c 0.08909,0 0.17887,0.01106 0.26727,0 0.09112,-0.01138 0.17636,-0.05383 0.26727,-0.06682 0.06615,-0.0094 0.13431,0.0094 0.20045,0 0.09091,-0.01299 0.17615,-0.05543 0.26727,-0.06682 0.0884,-0.01106 0.17862,0.0089 0.26727,0 0.23632,0.02813 0.44243,-0.10855 0.66817,-0.13363 0.11068,-0.0123 0.22742,0.032 0.33409,0 0.12439,-0.03732 0.20879,-0.16628 0.33409,-0.20046 0.12893,-0.03516 0.26782,0.01209 0.4009,0 0.17052,-0.01551 0.42899,-0.09533 0.60136,-0.13363 0.11086,-0.02463 0.22635,-0.03091 0.33409,-0.06682 0.02988,-0.0099 0.03757,-0.05512 0.06682,-0.06682 0.08527,-0.0341 0.17897,-0.04159 0.26727,-0.06682 0.13544,-0.0387 0.27012,-0.08132 0.4009,-0.13363 0.04624,-0.0185 0.08639,-0.05107 0.13363,-0.06682 0.04226,-0.01408 0.09379,0.01992 0.13364,0 0.05635,-0.02817 0.07387,-0.11372 0.13364,-0.13363 0.01667,-0.0056 0.3272,0.0069 0.33409,0 0.01574,-0.01574 -0.01574,-0.05107 0,-0.06682 0.0315,-0.0315 0.10214,0.0315 0.13363,0 0.01574,-0.01574 -0.0099,-0.0469 0,-0.06682 0.01408,-0.02817 0.05273,-0.03865 0.06682,-0.06682 0.0099,-0.01992 -0.0099,-0.0469 0,-0.06682 0.13904,-0.27808 -0.0046,0.07143 0.13364,-0.06682 0.13825,-0.13825 -0.21126,0.0054 0.06681,-0.13364 0.01992,-0.0099 0.05107,0.01574 0.06682,0 0.01574,-0.01574 -0.01992,-0.05686 0,-0.06681 0.03984,-0.01992 0.09657,0.02471 0.13363,0 0.04144,-0.02763 0.03919,-0.0922 0.06682,-0.13364 0.01746,-0.02622 0.05273,-0.03865 0.06682,-0.06682 0.0099,-0.01992 -0.007,-0.04569 0,-0.06682 0.16133,-0.48398 -0.01926,0.10535 0.13363,-0.20045 0.0099,-0.01992 -0.01574,-0.05107 0,-0.06682 0.01574,-0.01574 0.05107,0.01574 0.06682,0 0.02344,-0.02344 -0.02307,-0.28793 0,-0.33409 0.01408,-0.02817 0.05273,-0.03865 0.06682,-0.06682 0.01992,-0.03984 -0.01992,-0.09379 0,-0.13363 0.01408,-0.02817 0.05273,-0.03865 0.06682,-0.06682 0.01016,-0.02035 0,-0.17036 0,-0.20045 v -0.06681 c 0,-0.02228 0.01574,-0.05107 0,-0.06682 -0.0094,-0.0094 -0.18675,-0.0069 -0.20045,0 -0.02817,0.01408 -0.03865,0.05273 -0.06682,0.06682 -0.03984,0.01992 -0.10214,-0.0315 -0.13363,0 -0.01574,0.01574 0.01574,0.05107 0,0.06681 -0.01574,0.01574 -0.0469,-0.0099 -0.06682,0 -0.05635,0.02817 -0.07729,0.10546 -0.13364,0.13364 -0.01992,0.0099 -0.05107,-0.01574 -0.06682,0 -0.01574,0.01574 0.01574,0.05107 0,0.06682 -0.01574,0.01574 -0.04689,-0.01 -0.06681,0 -0.16514,0.08257 0.02307,0.06682 -0.13364,0.06682 -0.02228,0 -0.06682,0.02228 -0.06682,0 0,-0.02228 0.05107,0.01574 0.06682,0 0.01574,-0.01574 -0.007,-0.04569 0,-0.06682 0.01574,-0.04725 0.0316,-0.09842 0.06682,-0.13364 0.01574,-0.01574 0.05686,0.01992 0.06682,0 0.01992,-0.03984 -0.01408,-0.09138 0,-0.13363 0.0099,-0.02988 0.05273,-0.03865 0.06681,-0.06682 0.0099,-0.01992 -0.01336,-0.049 0,-0.06682 0.07484,-0.09978 0.19243,-0.16749 0.26727,-0.26727 0.04455,-0.06682 0.08909,-0.13364 0.13363,-0.20045 0,-0.02228 -0.0099,-0.0469 0,-0.06682 0.13904,-0.27808 -0.0046,0.07143 0.13364,-0.06682 0.01574,-0.01574 -0.0099,-0.0469 0,-0.06682 0.01408,-0.02817 0.05273,-0.03865 0.06682,-0.06682 0.01992,-0.03984 -0.01408,-0.09138 0,-0.13364 0.04045,-0.12135 0.05718,-0.124 0.13363,-0.20045 0.02228,-0.02228 0.04935,-0.04061 0.06682,-0.06682 0.02763,-0.04144 0.03919,-0.0922 0.06682,-0.13363 0.01746,-0.02619 0.05273,-0.03864 0.06682,-0.06681 0.0099,-0.01992 -0.0099,-0.0469 0,-0.06682 0.01408,-0.02817 0.05273,-0.03865 0.06682,-0.06682 0.02609,-0.05219 0.07525,-0.2757 0.13363,-0.33409 0.01574,-0.01574 0.05107,0.01574 0.06682,0 0.0043,-0.0043 0.12534,-0.25482 0.13364,-0.26727 0.01746,-0.02622 0.04455,-0.04454 0.06682,-0.06682 0.02228,-0.02228 0.03864,-0.05273 0.06681,-0.06682 0.01992,-0.0099 0.05107,0.01574 0.06682,0 0.01365,-0.01365 -0.01326,-0.17396 0,-0.20045 0.02817,-0.05635 0.10546,-0.07729 0.13364,-0.13363 0.0099,-0.01992 -0.0099,-0.0469 0,-0.06682 0.02817,-0.05635 0.10546,-0.07729 0.13363,-0.13363 0.0088,-0.01757 0,-0.23233 0,-0.26727 v -0.46772 c 0,-0.03009 0.01016,-0.18012 0,-0.20045 -0.01408,-0.02817 -0.05273,-0.03865 -0.06681,-0.06682 -0.01992,-0.03984 0.0315,-0.10214 0,-0.13363 -0.03341,-0.03341 -0.16705,0.03341 -0.20046,0 -0.01574,-0.01574 0.01574,-0.05107 0,-0.06682 -0.01574,-0.01574 -0.04454,0 -0.06682,0 h -0.06681 -0.13364 c -0.02228,0 -0.06682,0.02228 -0.06682,0 0,-0.02228 0.06682,0.02228 0.06682,0 0,-0.0315 -0.05273,-0.03865 -0.06682,-0.06682 -0.0099,-0.01992 0,-0.04454 0,-0.06682 0,-0.09831 -0.01574,-0.05107 0.06682,-0.13363 0.02901,-0.02901 0.18607,-0.14801 0.13364,-0.20045 -0.03341,-0.03341 -0.16704,0.03341 -0.20045,0 -0.01574,-0.01574 0.01574,-0.05107 0,-0.06682 -0.0315,-0.0315 -0.09379,0.01992 -0.13364,0 -0.02817,-0.01408 -0.03864,-0.05273 -0.06682,-0.06682 -0.09216,-0.04608 -0.05977,0.08092 -0.13364,-0.06682 -0.02307,-0.04615 0.02344,-0.31064 0,-0.33409 -0.01574,-0.01574 -0.05107,0.01574 -0.06682,0 -0.01574,-0.01574 0.0099,-0.0469 0,-0.06682 -0.01408,-0.02817 -0.05686,-0.03694 -0.06682,-0.06682 -0.02817,-0.08452 0.03984,-0.18758 0,-0.26727 -0.0099,-0.01992 -0.05686,0.01992 -0.06682,0 -0.01992,-0.03984 0.01992,-0.09379 0,-0.13364 -0.01,-0.01992 -0.05107,0.01574 -0.06682,0 -0.01574,-0.01574 0,-0.04454 0,-0.06682 V 53.22133 52.3527 52.28588 c 0,-0.02228 0.01574,-0.05107 0,-0.06682 -0.01574,-0.01574 -0.05107,0.01574 -0.06682,0 -0.01574,-0.01574 0,-0.04454 0,-0.06682 v -0.06682 -0.4009 -0.13364 c 0,-0.02228 0.0099,-0.04689 0,-0.06681 -0.01408,-0.02817 -0.05273,-0.03865 -0.06682,-0.06682 -0.01016,-0.02032 0,-0.22113 0,-0.26727 v -0.53454 -1.9377 -0.60136 c 0,-0.0579 0.01291,-0.22856 0,-0.26727 -0.01574,-0.04725 -0.05107,-0.08639 -0.06682,-0.13364 -0.007,-0.02114 0.0054,-0.04521 0,-0.06682 -0.01709,-0.06833 -0.04973,-0.13212 -0.06682,-0.20045 -0.0054,-0.02162 0,-0.04455 0,-0.06682 0,-0.13363 0.02196,-0.26909 0,-0.40091 -0.0082,-0.04912 -0.04454,-0.08909 -0.06682,-0.13363 -0.02228,-0.06682 -0.05524,-0.13098 -0.06682,-0.20045 -0.01495,-0.08971 0,-0.4332 0,-0.53454 0,-0.0668 0.0131,-0.13493 0,-0.20045 -0.0098,-0.0488 -0.04454,-0.0891 -0.06682,-0.13363 -0.02228,-0.11137 -0.05273,-0.2214 -0.06682,-0.33409 -0.01656,-0.1326 0,-0.26727 0,-0.4009 v -0.86863 -0.26727 c 0,-0.0223 0.0099,-0.0469 0,-0.0668 -0.04128,-0.0826 -0.06451,-0.0668 -0.13363,-0.0668 -0.02228,0 -0.06682,0.0223 -0.06682,0 0,-0.0584 0.2216,0.0668 0,0.0668 -0.02228,0 0.007,-0.0457 0,-0.0668 -0.08674,-0.26021 -0.06682,-0.006 -0.06682,-0.26726 0,-0.13133 0.01455,-0.33673 0,-0.46773 -0.01738,-0.15652 -0.04942,-0.31119 -0.06682,-0.46772 -0.0049,-0.0443 0,-0.0891 0,-0.13363 v -0.40091 -0.33408 -0.46773 -0.13363 c 0,-0.0445 0.02471,-0.0966 0,-0.13364 -0.02763,-0.0414 -0.10601,-0.0254 -0.13363,-0.0668 -0.02471,-0.0371 0,-0.0891 0,-0.13364 V 40.59288 39.9247 c 0,-0.11136 0.02183,-0.22488 0,-0.33408 -0.0098,-0.0488 -0.05474,-0.0853 -0.06682,-0.13364 -0.0108,-0.0432 0.0063,-0.0895 0,-0.13363 -0.01606,-0.11243 -0.05076,-0.22166 -0.06682,-0.33409 -0.0218,-0.15258 0.02535,-0.31572 0,-0.46772 -0.09776,-0.58654 -0.02458,0.10214 -0.13364,-0.33409 -0.0108,-0.0432 0,-0.0891 0,-0.13363 v -0.26727 c 0,-0.0668 0.0131,-0.13493 0,-0.20046 -0.0098,-0.0488 -0.05474,-0.0853 -0.06682,-0.13363 -0.0108,-0.0432 0.0087,-0.09 0,-0.13363 -0.01381,-0.0691 -0.05524,-0.13098 -0.06682,-0.20046 -0.01098,-0.0659 0.02482,-0.13841 0,-0.20045 -0.02339,-0.0585 -0.09584,-0.0832 -0.13364,-0.13363 -0.02988,-0.0399 -0.03787,-0.0931 -0.06682,-0.13364 -0.08289,-0.11605 -0.18816,-0.21542 -0.26727,-0.33408 -0.13364,-0.20046 -0.10023,-0.23386 -0.20045,-0.40091 -0.04132,-0.0689 -0.09232,-0.13159 -0.13364,-0.20045 -0.05125,-0.0854 -0.07838,-0.18439 -0.13364,-0.26727 -0.03494,-0.0524 -0.09869,-0.0812 -0.13363,-0.13363 -0.02763,-0.0414 -0.0316,-0.0984 -0.06682,-0.13364 -0.01574,-0.01569 -0.04569,0.007 -0.06682,0 -0.04725,-0.01569 -0.09842,-0.0316 -0.13364,-0.0668 -0.01574,-0.01569 0.01574,-0.0511 0,-0.0668 -0.16877,-0.16878 -0.07703,-0.02569 -0.20045,-0.0668 -0.48399,-0.16133 0.10534,0.01929 -0.20045,-0.13364 -0.16457,-0.0823 0.06032,0.19396 -0.20045,-0.0668 -0.01574,-0.01579 0.01992,-0.0569 0,-0.0668 -0.03984,-0.0199 -0.09379,0.0199 -0.13364,0 -0.01992,-0.01 0.0099,-0.0469 0,-0.0668 -0.01408,-0.0282 -0.03864,-0.0527 -0.06681,-0.0668 -0.01992,-0.01 -0.0469,0.01 -0.06682,0 -0.02817,-0.0141 -0.03865,-0.0527 -0.06682,-0.0668 -0.03984,-0.0199 -0.09379,0.0199 -0.13363,0 -0.14774,-0.0739 -0.02074,-0.0415 -0.06682,-0.13364 -0.02817,-0.0563 -0.10546,-0.0773 -0.13364,-0.13363 -0.01,-0.0199 0.01574,-0.0511 0,-0.0668 -0.03522,-0.0352 -0.10601,-0.0254 -0.13364,-0.0668 -0.02471,-0.0371 0.02471,-0.0966 0,-0.13363 -0.0042,-0.18814 -0.15065,-0.01701 -0.20045,-0.0668 -0.03522,-0.0352 -0.03919,-0.0922 -0.06682,-0.13364 -0.01746,-0.02619 -0.05273,-0.0386 -0.06682,-0.0668 -0.0099,-0.0199 0,-0.0445 0,-0.0668 -0.02228,-0.0445 -0.03919,-0.0922 -0.06682,-0.13363 -0.03494,-0.0524 -0.09869,-0.0812 -0.13363,-0.13364 -0.02763,-0.0414 -0.0316,-0.0984 -0.06682,-0.13363 -0.03522,-0.0352 -0.09842,-0.0316 -0.13364,-0.0668 -0.01574,-0.01569 0.0099,-0.0469 0,-0.0668 -0.01408,-0.0282 -0.04935,-0.0406 -0.06682,-0.0668 -0.0083,-0.01241 -0.12935,-0.26298 -0.13363,-0.26727 -0.01574,-0.01569 -0.05107,0.01569 -0.06682,0 -0.0315,-0.0315 0.0315,-0.10213 0,-0.13363 -0.01574,-0.01569 -0.05107,0.01569 -0.06682,0 -0.01574,-0.01569 0.0099,-0.0469 0,-0.0668 -0.02817,-0.0563 -0.10546,-0.0773 -0.13363,-0.13363 -0.0099,-0.0199 0.0099,-0.0469 0,-0.0668 -0.01408,-0.0282 -0.04935,-0.0406 -0.06682,-0.0668 -0.24223,-0.48446 0.07043,0.10565 -0.13364,-0.20045 -0.02763,-0.0414 -0.0316,-0.0984 -0.06682,-0.13363 -0.03521,-0.0352 -0.09842,-0.0316 -0.13363,-0.0668 -0.03522,-0.0352 -0.03919,-0.0922 -0.06682,-0.13364 -0.01746,-0.02619 -0.04934,-0.0406 -0.06682,-0.0668 -0.02763,-0.0414 -0.0316,-0.0984 -0.06682,-0.13364 -0.05678,-0.0568 -0.14367,-0.0768 -0.20045,-0.13363 -0.03522,-0.0352 -0.03694,-0.0938 -0.06682,-0.13364 -0.36046,-0.48061 0.07419,0.14101 -0.26727,-0.20045 -0.05679,-0.0568 -0.07685,-0.14367 -0.13364,-0.20045 -0.03522,-0.0352 -0.09093,-0.0412 -0.13363,-0.0668 -0.24497,-0.14698 -0.29918,-0.2241 -0.60136,-0.26727 -0.06615,-0.009 -0.13493,0.0131 -0.20045,0 -0.04884,-0.01 -0.08909,-0.0445 -0.13364,-0.0668 -0.06682,-0.0223 -0.13098,-0.0552 -0.20045,-0.0668 -0.08468,-0.0141 -0.5248,0 -0.60136,0 -0.14452,0 -0.4759,-0.01569 -0.60136,0 -0.09112,0.0114 -0.17897,0.0416 -0.26727,0.0668 -0.06772,0.01929 -0.13364,0.0446 -0.20045,0.0668 -0.06682,0.0223 -0.1393,0.0319 -0.20045,0.0668 -0.09669,0.0553 -0.17461,0.13868 -0.26727,0.20045 -0.08288,0.0553 -0.18186,0.0824 -0.26727,0.13364 -0.06886,0.0413 -0.12863,0.0977 -0.20045,0.13363 -0.063,0.0315 -0.13506,0.0407 -0.20045,0.0668 -0.13872,0.0555 -0.26358,0.14159 -0.4009,0.20045 -0.06474,0.0277 -0.13451,0.0421 -0.20045,0.0668 -0.11136,0.0445 -0.22272,0.0891 -0.33409,0.13363 -0.04455,0.0223 -0.0874,0.0483 -0.13363,0.0668 -0.06539,0.02619 -0.13746,0.0353 -0.20045,0.0668 -0.07183,0.0359 -0.12664,0.102 -0.20045,0.13363 -0.10193,0.0437 -0.35937,0.0686 -0.46772,0.13364 -0.05402,0.0324 -0.08324,0.0958 -0.13364,0.13363 -0.07969,0.0598 -0.19684,0.0632 -0.26727,0.13363 -0.03522,0.0352 -0.03694,0.0938 -0.06682,0.13364 -0.0378,0.0504 -0.08909,0.0891 -0.13363,0.13364 -0.02228,0.0223 -0.04061,0.0493 -0.06682,0.0668 -0.04144,0.0276 -0.09842,0.0316 -0.13364,0.0668 -0.03522,0.0352 -0.03694,0.0938 -0.06682,0.13363 -0.0378,0.0504 -0.09583,0.0832 -0.13363,0.13364 -0.15818,0.2109 0.05021,0.0834 -0.20045,0.33409 -0.01574,0.01569 -0.04569,-0.007 -0.06682,0 -0.04725,0.01569 -0.09842,0.0316 -0.13364,0.0668 -0.03522,0.0352 -0.0316,0.0984 -0.06682,0.13364 -0.03522,0.0352 -0.0922,0.0392 -0.13363,0.0668 -0.15351,0.10233 0.02865,0.0382 -0.13364,0.20045 -0.03522,0.0352 -0.09842,0.0316 -0.13364,0.0668 -0.01574,0.01569 0.01574,0.0511 0,0.0668 -0.03522,0.0352 -0.09842,0.0316 -0.13363,0.0668 -0.01574,0.01569 0.01574,0.0511 0,0.0668 -0.03522,0.0352 -0.09842,0.0316 -0.13364,0.0668 -0.01574,0.0158 0.01574,0.0511 0,0.0668 -0.03522,0.0352 -0.08639,0.0511 -0.13363,0.0668 -0.02114,0.007 -0.05107,-0.01569 -0.06682,0 -0.01574,0.01569 0.0099,0.0469 0,0.0668 -0.01077,0.02151 -0.31994,0.32465 -0.33409,0.33408 -0.01852,0.01241 -0.05107,-0.01569 -0.06682,0 -0.09543,0.0954 -0.03821,0.17184 -0.13364,0.26727 -0.01574,0.01569 -0.0469,-0.01 -0.06682,0 -0.02817,0.0141 -0.03865,0.0527 -0.06682,0.0668 -0.01992,0.01 -0.05107,-0.01569 -0.06682,0 -0.01574,0.01569 0.01146,0.0477 0,0.0668 -0.0573,0.0955 -0.14316,0.17177 -0.20045,0.26727 -0.01146,0.0191 0.01574,0.0511 0,0.0668 -0.01574,0.01569 -0.04689,-0.01 -0.06682,0 -0.01278,0.006 -0.26087,0.25447 -0.26727,0.26726 -0.0099,0.0199 0.01,0.0469 0,0.0668 -0.13904,0.27808 0.0046,-0.0714 -0.13364,0.0668 -0.01574,0.01569 0.0099,0.0469 0,0.0668 -0.02817,0.0563 -0.10546,0.0773 -0.13363,0.13363 -0.0099,0.0199 0.0099,0.0469 0,0.0668 -0.01408,0.0282 -0.03864,0.0527 -0.06682,0.0668 -0.01992,0.01 -0.05686,-0.0199 -0.06682,0 -0.01992,0.0398 0.0108,0.0904 0,0.13363 -0.01209,0.0483 -0.05107,0.0864 -0.06682,0.13364 -0.007,0.02109 0.0099,0.0469 0,0.0668 -0.01407,0.0282 -0.04935,0.0406 -0.06682,0.0668 -0.02763,0.0414 -0.0316,0.0984 -0.06682,0.13363 -0.03522,0.0352 -0.09842,0.0316 -0.13364,0.0668 -0.01574,0.01569 0.01574,0.0511 0,0.0668 -0.26077,0.26077 -0.03588,-0.01551 -0.20045,0.0668 -0.27808,0.13904 0.07143,-0.005 -0.06682,0.13363 -0.13825,0.13825 0.0054,-0.21126 -0.13364,0.0668 -0.0099,0.0199 0,0.0445 0,0.0668 -0.02228,0.0223 -0.05273,0.0386 -0.06682,0.0668 -0.0099,0.0199 0.01574,0.0511 0,0.0668 -0.01574,0.01569 -0.04454,0 -0.06681,0 h -0.33409 -0.06682 c -0.02228,0 -0.05451,0.0186 -0.06682,0 -0.05329,-0.0803 -0.07366,-0.17818 -0.11048,-0.26727 z"
         id="path15"
         style="fill:none;stroke:#000000;stroke-width:0.26458px" /></clipPath><clipPath
       id="clipPath1030"><path
         d="m 207.1,7.1982 v -23.397 l 6.9223,4.2095 -0.37418,19.13 3.6015,-4.8175 0.37418,10.337 -10.571,-0.70158 z"
         id="path18"
         style="fill:none;stroke:#000000;stroke-width:0.26458px" /></clipPath><clipPath
       id="clipPath1036"><path
         d="m -37.751,57.579 0.60804,-8.9657 -3.1805,4.8965 0.14032,-18.475 -6.5481,-2.9934 -6.1739,3.6482 -2.1515,8.0916 -1.8975,17.8 6.3409,-5.3121 2.058,-14.874 1.5435,18.849 6.9691,1.0758 z"
         id="path21"
         style="fill:none;stroke:#000000;stroke-width:0.26458px" /></clipPath><clipPath
       id="clipPath1107"><path
         d="m -58.887,24.032 c -4.0349,14.618 -3.3154,19.434 -3.3154,19.434 l 7.5067,-6.5484 z"
         id="path24"
         style="fill:none;stroke:#000000;stroke-width:0.26458px" /></clipPath></defs><metadata
     id="metadata29"><rdf:RDF><cc:Work
         rdf:about=""><dc:format>image/svg+xml</dc:format><dc:type
           rdf:resource="http://purl.org/dc/dcmitype/StillImage" /></cc:Work></rdf:RDF></metadata><path
     style="fill:#ffffff;fill-opacity:1;stroke-width:0.373534"
     id="path77"
     d="m 35.625479,1.0511498 c -2.40011,3.1545901 -5.20244,12.2495262 -6.507611,21.1193032 -0.40042,2.72147 -0.72887,5.72446 -0.72966,6.67351 -0.002,1.70323 -0.0197,1.72839 -1.40249,1.95696 -0.7704,0.12736 -2.45493,0.23254 -3.74274,0.23564 -2.23168,0.004 -2.33341,-0.0352 -2.16832,-0.83612 0.0953,-0.46225 0.274,-2.26946 0.3974,-4.0158 0.82158,-11.628559 3.17576,-21.7572131 5.24107,-22.5498931 0.80742,-0.30983 -0.0595,-2.0146699 -1.36889,-2.69184007 -1.85851,-0.9610903 -3.12495,-0.6280902 -9.19521,2.41636007 C 2.9861779,9.9610802 -0.29991185,13.397965 1.6561279,18.519443 c 0.56832,1.48816 2.41009,3.55622 3.16729,3.55622 0.15716,0 0.49699,-0.71434 0.75498,-1.58748 0.72669,-2.45945 2.82201,-6.221339 4.8881101,-8.774536 1.77433,-2.1928858 6.31315,-6.2255673 6.63937,-5.8993473 -2.21695,7.5376573 -1.58335,12.9625363 -2.03345,20.8227833 l -0.24029,3.93007 -2.74396,0.20773 c -4.9778101,0.37647 -8.8594601,2.88472 -10.9557301,7.08016 -0.87792973,1.75689 -1.13427975,2.76698 -1.13427975,4.47008 0,2.5029 0.58982972,3.89118 2.24479975,5.28393 3.35805,2.82571 8.7605101,1.58745 13.1014701,-3.00246 1.88098,-1.98887 4.0965,-6.12635 4.63518,-8.65785 0.25561,-1.20077 0.32628,-1.24664 1.62881,-1.04488 0.74908,0.11604 2.65003,0.32462 4.22455,0.46355 l 2.86222,0.25269 0.24908,1.35235 c 1.15724,6.29092 6.785951,9.14732 10.908631,5.53607 0.75069,-0.65756 1.83965,-1.94276 2.41998,-2.85614 l 1.05523,-1.66088 v 2.28148 c 0,2.05253 0.10757,2.37132 1.07123,3.1821 3.9986,3.36467 7.518569,1.69424 10.973449,-5.20693 l 1.68929,-3.37499 0.60047,2.99267 c 0.90981,4.53596 2.31423,6.40045 5.17121,6.864 1.97253,0.29561 4.65291,-1.42913 5.65381,-2.61686 0,0.32623 -0.0355,1.84304 0.39844,2.39466 0.68481,0.87066 1.27588,0.75009 2.77967,0.65267 l 1.73218,-0.11214 0.31369,-1.86756 c 1.02318,-6.09513 6.04544,-18.270461 7.75804,-18.547556 1.4533,0.111855 0.57422,15.522616 1.045,17.189466 0.89354,3.16385 3.01145,4.16184 5.91124,2.78576 1.40619,-0.66724 5.563584,-4.55024 6.513694,-6.08375 l 0.57049,-0.92087 0.61803,1.85465 c 0.33983,1.01993 0.9582,2.41215 1.37407,3.09374 0.96016,1.57385 3.651998,2.83973 5.278628,2.4825 1.34875,-0.29623 3.85864,-2.458 4.66587,-4.01871 l 0.56896,-1.10018 0.66197,1.08777 c 0.83767,1.37741 2.84027,3.07574 4.39653,3.72793 1.77224,0.74265 5.5919,0.62481 7.47597,-0.23047 2.26052,-1.02615 5.02649,-3.76153 7.14843,-7.06931 1.93857,-3.02203 5.04739,-9.26215 5.48686,-11.01367 0.29212,-1.16392 0.36821,-1.20318 2.9244,-1.50893 l 1.82467,-0.21807 -0.25269,1.77403 c -0.91733,6.43644 -1.01075,8.04165 -0.61547,10.58929 0.43738,2.8191 1.10746,4.46267 2.39776,5.88135 2.59058,2.84794 6.91083,2.60148 8.92587,-0.50953 0.99831,-1.54131 1.15084,-1.57555 1.69495,-0.38137 0.23023,0.50527 1.11875,1.38185 1.97454,1.94819 2.12071,1.40343 4.80133,1.39052 7.23414,-0.0351 0.94585,-0.55432 1.92339,-1.33436 2.17244,-1.73321 0.63124,-1.01078 1.02059,-0.90407 1.02059,0.27955 0,0.79549 -0.96831,1.9422 -4.65237,5.50962 -4.99183,4.83387 -6.54333,7.20954 -6.55047,10.0334 -0.006,2.41953 1.54365,5.072957 4.28739,5.702891 10.5735,2.427564 12.36166,-9.997413 12.00018,-17.440451 l -0.22686,-3.59512 1.49395,-1.87635 c 2.48938,-3.12654 5.45061,-8.11281 7.15451,-12.04817 l 1.61333,-3.72582 h 4.18671 l -0.48833,2.52126 c -0.68273,3.52712 -0.64944,9.59129 0.0656,11.99923 0.72104,2.42803 2.87017,4.69736 4.98866,5.26779 1.9344,0.52088 3.87054,-0.21405 5.47205,-2.07685 l 1.14306,-1.32962 1.48517,1.48517 c 3.14427,3.14427 7.47544,2.72121 10.69908,-1.04488 0.70948,-0.82885 1.38185,-1.50739 1.49396,-1.50739 0.11208,0 0.30601,0.40761 0.43097,0.90537 0.33133,1.32009 2.29073,3.11966 3.87266,3.55622 2.11344,0.58355 3.99621,-0.0798 5.28789,-1.86291 l 1.06917,-1.47586 0.23823,1.26864 c 0.13091,0.69783 0.48907,1.4771 0.7958,1.73165 0.59419,0.49315 4.18962,0.68992 4.87409,0.26664 0.23478,-0.14517 0.50995,-2.12717 0.64648,-4.65608 0.13416,-2.48424 0.57752,-5.70513 1.01749,-7.3913 0.80821,-3.09744 2.50645,-7.28363 2.95483,-7.28363 0.14117,0 0.44997,2.57656 0.68627,5.72578 0.23626,3.14903 0.62039,6.63699 0.85316,7.75087 0.55216,2.6421 1.85619,4.0793 3.70042,4.0793 1.75551,-10e-6 2.24583,-0.54348 2.24583,-2.48923 0,-2.55097 1.32441,-8.62319 2.67517,-12.26513 l 1.24694,-3.36202 0.22014,6.35045 c 0.24593,5.04914 0.8174,14.980259 7.82548,13.76184 2.4234,-0.48469 4.60308,-3.99225 4.60308,-7.66515 0,-1.52059 -0.24536,-1.80142 -0.84461,-1.80142 -0.53977,0 -0.81367,0.43301 -1.14307,1.80608 -0.63528,2.64818 -2.14813,4.511689 -3.19873,4.013585 -4.38713,-2.079999 -2.03832,-15.368908 -2.37084,-20.311185 -0.0584,-0.58705 -3.63824,-2.30934 -4.81112,-2.31404 -0.46225,-0.002 -1.15116,0.30728 -1.53115,0.68727 -0.7867,0.7867 -3.5795,9.02853 -3.99198,11.78042 -0.43169,2.88101 -0.80025,1.31983 -1.09036,-4.61507 -0.14529,-2.97229 -0.41264,-5.68185 -0.59428,-6.02131 -0.45118,-0.84306 -2.64606,-1.83499 -4.06024,-1.83499 -1.49549,0 -2.08066,0.94555 -3.99198,6.45178 l -1.45572,4.19465 -0.18707,-4.8561 -0.18655,-4.8561 -1.30739,-0.44598 c -2.14601,-0.73182 -3.31916,-0.61491 -3.53559,0.35242 -0.10351,0.46225 -0.23282,4.53834 -0.2873,9.05816 -0.0987,8.19325 -0.10243,8.22421 -1.16686,10.39191 -1.63579,3.33133 -3.4779,3.77556 -4.59284,1.1069 -0.48093,-1.15111 -0.57747,-3.03447 -0.54413,-10.6385 0.0461,-10.52181 0.2051,-10.02837 -3.27101,-10.14241 -1.51816,-0.0498 -1.74453,0.0441 -1.8469,0.76377 -0.11258,0.7912 -0.17633,0.77448 -1.80295,-0.46715 -1.42146,-1.08501 -1.9898,-1.28638 -3.61893,-1.28517 -9.56112,0.10599 -10.83984,12.562 -8.86872,21.28996 -1.07192,2.07283 -3.41414,2.71697 -4.64655,0.6542 -1.12039,-1.8751 -1.22498,-8.00434 -0.21446,-12.5903 0.9481,-4.3026 0.96942,-5.33684 0.12454,-6.07873 -1.10062,-0.96648 -2.04814,-1.0548 -5.08443,-0.47386 -1.60558,0.3072 -2.98843,0.55861 -3.0731,0.55861 -0.0846,0 -0.15347,-0.58835 -0.15347,-1.3074 0,-2.40492 -2.09273,-3.47711 -4.42854,-2.26909 -1.94644,1.00654 -2.65242,4.66693 -1.16064,6.01708 0.58457,0.52897 0.70569,0.95455 0.52091,1.83243 -0.58848,2.79555 -4.74657,11.34704 -5.84854,12.02807 -0.27829,0.17203 -0.34084,-2.40591 -0.20826,-8.6134 l 0.18914,-8.85867 -0.91312,-0.5984 c -0.50241,-0.32919 -1.60537,-0.61192 -2.45099,-0.62838 -1.23636,-0.0241 -1.6213,0.13439 -1.96472,0.81078 l -0.42735,0.84129 -0.71106,-0.78599 c -1.26842,-1.40159 -2.73761,-1.92535 -4.89896,-1.74612 -2.38601,0.19786 -3.57554,0.97743 -5.24239,3.43477 -2.09106,3.08236 -2.81593,6.04671 -2.88392,11.79604 -0.0612,5.16275 -0.40613,6.61979 -1.85259,7.82019 -0.88989,0.73855 -2.36164,0.16874 -3.08765,-1.19527 -1.06493,-2.00083 -1.12809,-8.33797 -0.12971,-13.00119 0.90624,-4.23275 0.81131,-5.28129 -0.56017,-6.1798 -0.95794,-0.62766 -1.17203,-0.61274 -6.61767,0.45992 -0.96694,0.19047 -1.02731,0.12435 -1.02731,-1.13428 0,-2.66908 -3.10458,-3.86975 -5.02914,-1.94509 -1.74305,1.74308 -1.9127,4.44495 -0.37568,5.98189 0.59674,0.59674 0.57435,0.80517 -0.3762,3.51336 -1.82232,5.19212 -5.66942,10.63056 -8.56472,12.10771 -3.6737,1.87413 -6.66424,0.37975 -7.44343,-3.7192 -0.23041,-1.21278 -0.22825,-1.21387 1.3229,-1.21387 4.53014,0 8.13954,-4.53305 8.13954,-10.22152 0,-4.00706 -2.12024,-6.27504 -6.07397,-6.49729 -2.95297,-0.16602 -4.43039,0.55311 -6.33695,3.08448 -2.24832,2.98499 -3.03764,5.88108 -3.15274,11.56611 -0.106,5.23101 -0.30074,5.81176 -2.49594,7.45057 -0.78416,0.58547 -1.16441,0.66809 -1.65775,0.36018 -1.39934,-0.87336 -1.67104,-2.90774 -1.61383,-12.09316 0.0301,-4.82806 0.15403,-9.32433 0.27542,-9.99213 l 0.22118,-1.21387 h 3.46123 c 3.89938,0 4.4259,-0.28775 4.2317,-2.31042 l -0.11886,-1.238148 -2.24118,-0.0904 c -1.23267,-0.0496 -2.97361,-0.18862 -3.86895,-0.30903 l -1.62778,-0.21857 0.13333,-3.4265748 0.13384,-3.426051 -1.3074,-0.6201295 C 98.709142,5.1132098 97.043192,4.8213998 96.394702,5.2379098 c -0.3839,0.2465599 -0.59631,1.4403694 -0.74723,4.2018014 l -0.21032,3.8570448 h -5.964944 l -0.46199,1.397828 c -0.61152,1.848859 -0.30654,2.523169 1.1436,2.527449 0.645694,0.002 2.076814,0.11194 3.180244,0.24443 l 2.00604,0.24081 -0.18241,6.57269 c -0.20154,7.24764 -0.81488,10.09955 -2.70375,12.57576 -1.08419,1.42145 -3.802534,3.39826 -4.169244,3.03182 -0.62835,-0.62989 -0.83017,-4.15153 -0.62218,-10.9335 0,0 0.254503,-6.867061 0.125439,-7.153541 -0.241186,-0.535357 -1.167749,-1.318849 -1.167749,-1.318849 -2.82624,-2.15574 -4.71719,-2.1586 -7.09497,-0.0103 -1.78396,1.61169 -3.22365,4.12956 -4.86695,8.51365 l -1.25985,3.36202 -0.432102,-11.464688 c -0.05768,-1.530315 -3.837524,-2.077604 -4.787048,-1.937777 -0.199712,0.02941 0.694778,15.302959 -0.52411,19.939465 -0.80217,2.996818 -3.27391,3.36307 -4.42695,1.60452 -0.58245,-0.88825 -0.67373,-2.13802 -0.75601,-10.36572 -0.0514,-5.14555 -0.0932,-9.54525 -0.093,-9.77702 5.3e-4,-0.71688 -3.59088,-1.82693 -4.32482,-1.33685 -0.21794,0.14553 -0.68,1.73141 -1.02732,3.52474 -0.87687,4.52749 -2.31438,8.90735 -4.07823,12.42811 -1.67977,3.35276 -3.533199,5.90199 -4.056009,5.57894 -0.19126,-0.1179 -0.27186,-0.3348 -0.18087,-0.48215 0.091,-0.14734 0.25937,-4.2563 0.37414,-9.13118 0.23593,-10.01885 0.2785,-9.85137 -2.71908,-10.74962 -2.67411,-0.80115 -2.66432,-0.82584 -2.66432,6.71001 0,3.68745 -0.29403,6.82907 -0.29403,6.82907 0,0 -5.10534,10.63136 -8.2041,5.18101 -0.46225,-0.91666 -0.83282,-2.17718 -0.82681,-2.80137 0.0115,-0.96112 0.25449,-1.24935 1.58748,-1.88204 2.16088,-1.02564 2.9969,-2.69422 2.70427,-5.3969 -0.187224,-2.687647 -0.360693,-2.428502 -2.22155,-1.32393 l -1.70995,1.00252 C 35.125571,18.842528 39.757014,9.5745282 42.081401,1.9044898 40.798484,0.02633593 37.065728,-0.82432049 35.625479,1.0511498 Z M 117.64027,22.042903 c 0.38147,0.004 0.7449,0.1589 1.06763,0.48162 0.64608,0.64605 0.52358,3.93774 -0.22065,5.92262 -0.77247,2.0601 -1.49141,3.08024 -2.575,3.65491 -1.02326,0.54284 -2.23774,0.5575 -2.56312,0.031 -0.37814,-0.61185 0.19401,-4.41452 0.97305,-6.46713 0.86602,-2.2819 2.17365,-3.63401 3.31809,-3.6229 z m 40.89084,0.43047 c 1.37822,-0.0397 2.64765,1.12349 3.22973,3.44669 0.9804,3.91314 -0.0556,11.49415 -1.93268,14.14206 -0.85724,1.20927 -2.45319,1.82304 -3.61946,1.39164 -2.81804,-1.0425 -3.57818,-11.34175 -1.18336,-16.03593 0.98866,-1.93791 2.28963,-2.90958 3.50569,-2.94451 z m 43.15035,0.001 c 1.4495,-0.0357 2.87519,1.08946 3.44431,3.0768 0.24685,0.86214 0.44052,3.16465 0.43253,5.11645 -0.0199,4.41664 -0.88708,7.71119 -2.498,9.49075 -1.67376,1.84889 -2.60985,2.01049 -3.94092,0.67955 -1.5932,-1.5932 -2.00793,-3.64803 -1.78798,-8.8629 0.21093,-5.00109 0.68857,-6.85739 2.17244,-8.44593 0.6529,-0.69891 1.41836,-1.03598 2.17762,-1.05469 z M 12.895698,33.662143 c 0.87163,-0.0129 1.29602,0.18473 1.29602,0.59324 0,2.42403 -2.22686,7.91094 -3.80942,9.3865 -2.8019001,2.61199 -6.7576401,-0.0538 -6.0750201,-4.09437 0.38694,-2.29047 3.13792,-4.91775 5.7318601,-5.4739 1.23014,-0.26382 2.17871,-0.40134 2.85667,-0.41134 z m 149.622632,14.18757 c 0.43722,0 0.41885,3.51892 -0.0367,7.02698 -0.74392,3.668002 -2.44256,7.04117 -5.1457,6.506146 -3.64836,-0.722109 -3.18809,-5.49611 2.56546,-11.011276 1.25176,-1.38677 2.42932,-2.52177 2.61686,-2.52177 z" /></svg>
