<?xml version="1.0" encoding="UTF-8" standalone="no"?>
<!-- Created with Inkscape (http://www.inkscape.org/) -->

<svg
   version="1.1"
   id="svg1153"
   width="46.88306"
   height="46.881119"
   viewBox="0 0 46.88306 46.881119"
   sodipodi:docname="verified_icon.svg"
   xml:space="preserve"
   inkscape:version="1.2.1 (9c6d41e, 2022-07-14)"
   xmlns:inkscape="http://www.inkscape.org/namespaces/inkscape"
   xmlns:sodipodi="http://sodipodi.sourceforge.net/DTD/sodipodi-0.dtd"
   xmlns="http://www.w3.org/2000/svg"
   xmlns:svg="http://www.w3.org/2000/svg"><defs
     id="defs1157" /><sodipodi:namedview
     id="namedview1155"
     pagecolor="#ffffff"
     bordercolor="#000000"
     borderopacity="0.25"
     inkscape:showpageshadow="2"
     inkscape:pageopacity="0.0"
     inkscape:pagecheckerboard="0"
     inkscape:deskcolor="#d1d1d1"
     showgrid="false"
     inkscape:zoom="9.26"
     inkscape:cx="20.356371"
     inkscape:cy="33.099352"
     inkscape:window-width="1512"
     inkscape:window-height="945"
     inkscape:window-x="0"
     inkscape:window-y="38"
     inkscape:window-maximized="0"
     inkscape:current-layer="g1159" /><g
     inkscape:groupmode="layer"
     inkscape:label="Image"
     id="g1159"
     transform="translate(-545.12621,-271.24422)"><path
       id="path1934"
       style="fill:#1da1f2;fill-opacity:1;stroke:none;stroke-width:2.68322;stroke-dasharray:21.4658, 10.7329"
       d="m 562.28747,271.24532 c -0.28331,0.0759 -3.29288,6.27132 -3.54688,6.41796 -0.254,0.14665 -7.12463,-0.3441 -7.33204,-0.13671 -0.20738,0.2074 0.28337,7.07608 0.13672,7.33007 -0.14664,0.254 -6.34205,3.26553 -6.41796,3.54884 -0.0759,0.28329 3.78516,5.98599 3.78516,6.2793 0,0.29329 -3.86107,5.99795 -3.78516,6.28124 0.0759,0.28331 6.27132,3.29287 6.41796,3.54688 0.14665,0.254 -0.3441,7.12465 -0.13672,7.33203 0.20741,0.20739 7.07804,-0.28336 7.33204,-0.13672 0.254,0.14665 3.26357,6.3401 3.54688,6.41602 0.28329,0.0759 5.98599,-3.78321 6.27929,-3.78321 0.29329,0 5.99795,3.85912 6.28125,3.78321 0.28331,-0.0759 3.29287,-6.26937 3.54687,-6.41602 0.25401,-0.14664 7.12465,0.34411 7.33204,0.13672 0.20739,-0.20738 -0.28336,-7.07803 -0.13672,-7.33203 0.14665,-0.25401 6.34206,-3.26357 6.41796,-3.54688 0.0759,-0.28329 -3.78516,-5.98795 -3.78516,-6.28124 0,-0.29331 3.86107,-5.99601 3.78516,-6.2793 -0.0759,-0.28331 -6.27131,-3.29484 -6.41796,-3.54884 -0.14664,-0.25399 0.34411,-7.12267 0.13672,-7.33007 -0.20739,-0.20739 -7.07803,0.28336 -7.33204,0.13671 -0.254,-0.14664 -3.26356,-6.34205 -3.54687,-6.41796 -0.2833,-0.0759 -5.98796,3.78516 -6.28125,3.78516 -0.2933,0 -5.996,-3.86106 -6.27929,-3.78516 z m 13.91016,15.10547 3.15233,3.15039 -10.36719,10.36719 -3.15233,3.15234 -3.15039,-3.15234 -4.89454,-4.89258 3.15235,-3.15235 4.89452,4.89454 z"
       sodipodi:nodetypes="cccccscccccsccsssscssscscccccccccc" /></g></svg>
